<svg xmlns="http://www.w3.org/2000/svg" xmlns:xlink="http://www.w3.org/1999/xlink" viewBox="0 0 64 64"><defs><style>.cls-1{fill:url(#radial-gradient);}.cls-2{fill:#1b2b3f;}.cls-3{opacity:0.3;}.cls-4{fill:#fff;}</style><radialGradient id="radial-gradient" cx="-373.68" cy="521.58" r="8" gradientTransform="translate(1526.73 -2054.3) scale(4)" gradientUnits="userSpaceOnUse"><stop offset="0" stop-color="#ffe920"/><stop offset="1" stop-color="#fdc800"/></radialGradient></defs><title>Asset 6</title><g id="Layer_2" data-name="Layer 2"><g id="Layer_1-2" data-name="Layer 1"><circle class="cls-1" cx="32" cy="32" r="32"/><path class="cls-2" d="M59,32a24.82,24.82,0,0,1-.8,6.48A27,27,0,0,1,33.52,58.94,9.73,9.73,0,0,1,32,59,27,27,0,1,1,59,32Z"/><path class="cls-3" d="M58.24,38.46A27,27,0,0,1,33.52,58.94l-12.8-12.8L43.36,23.58Z"/><rect class="cls-4" x="20" y="22.83" width="24" height="24" rx="2.4" ry="2.4"/><rect class="cls-4" x="20" y="17.17" width="6" height="16"/><rect class="cls-2" x="26" y="28.83" width="12" height="12" rx="1.9" ry="1.9"/></g></g></svg>